<?xml version="1.0" standalone="no"?><!DOCTYPE svg PUBLIC "-//W3C//DTD SVG 1.1//EN" "http://www.w3.org/Graphics/SVG/1.1/DTD/svg11.dtd"><svg class="icon" height="512" viewBox="0 0 1024 1024" version="1.1" xmlns="http://www.w3.org/2000/svg"><path d="M972.7488 154.5216c10.4704 13.0816-154.752 140.4672-333.1072 297.216 170.24 211.7376 183.1936 356.1728 168.2432 382.336-17.8432 31.1552-136.1152-129.024-278.2208-282.9824-30.3104 28.288-59.9808 56.9344-88.2688 85.5296C304.64 774.6816 225.6384 945.7152 200.9856 970.1888 144.2048 1047.4496-151.5264 907.5712 286.72 529.7408c42.5728-36.7104 82.5088-69.1456 121.0368-99.456C281.9584 317.7472 157.8496 242.176 85.76 204.1088c-87.1168-46.0032-24.1408-295.0656 345.0368 31.488 38.8352 34.3552 73.0624 67.4816 104.7296 99.7376C810.3424 144.128 954.5728 131.84 972.7488 154.5216z" fill="#ff0000" /></svg>